<svg width="206" height="45" viewBox="0 0 206 45" fill="none" xmlns="http://www.w3.org/2000/svg">
<path d="M10.4416 19.872C6.76163 18.6454 4.09363 17.158 2.43763 15.41C0.812292 13.662 -0.000374936 11.546 -0.000374936 9.06204C-0.000374936 6.27137 0.934958 4.06337 2.80563 2.43804C4.67629 0.812705 7.29829 3.86238e-05 10.6716 3.86238e-05C13.5236 3.86238e-05 16.0076 0.322038 18.1236 0.966037C18.8596 1.1807 19.4423 1.62537 19.8716 2.30004C20.3316 2.94404 20.5616 3.6647 20.5616 4.46204V4.87604C20.5616 5.45871 20.301 5.9187 19.7796 6.25604C19.2583 6.5627 18.7216 6.6087 18.1696 6.39404C15.8696 5.5047 13.5236 5.06004 11.1316 5.06004C9.59829 5.06004 8.43296 5.4127 7.63563 6.11804C6.83829 6.82337 6.43963 7.8047 6.43963 9.06204C6.43963 11.27 7.88096 12.8494 10.7636 13.8C14.9036 15.1187 17.771 16.6214 19.3656 18.308C20.991 19.9947 21.8036 22.172 21.8036 24.84C21.8036 31.28 17.8323 34.5 9.88963 34.5C7.40563 34.5 5.15163 34.1167 3.12763 33.35C2.39163 33.074 1.80896 32.5987 1.37963 31.924C0.980959 31.2494 0.781625 30.498 0.781625 29.67V29.118C0.781625 28.5354 1.02696 28.1214 1.51763 27.876C2.00829 27.6 2.51429 27.5847 3.03563 27.83C5.05963 28.842 7.19096 29.348 9.42963 29.348C13.3243 29.348 15.2716 27.876 15.2716 24.932C15.2716 23.736 14.9036 22.7547 14.1676 21.988C13.4316 21.1907 12.1896 20.4854 10.4416 19.872ZM30.0606 31.51L25.4606 12.65C25.3073 12.006 25.43 11.4234 25.8286 10.902C26.258 10.3807 26.7946 10.12 27.4386 10.12H28.5886C29.3553 10.12 30.03 10.3654 30.6126 10.856C31.1953 11.3467 31.548 11.96 31.6706 12.696L34.5226 28.934C34.5226 28.9647 34.538 28.98 34.5686 28.98C34.63 28.98 34.6606 28.9647 34.6606 28.934L37.5586 12.696C37.712 11.96 38.08 11.3467 38.6626 10.856C39.2453 10.3654 39.9046 10.12 40.6406 10.12H42.9406C43.7073 10.12 44.382 10.3654 44.9646 10.856C45.5473 11.3467 45.9 11.96 46.0226 12.696L48.9206 28.934C48.9206 28.9647 48.9513 28.98 49.0126 28.98C49.0433 28.98 49.0586 28.9647 49.0586 28.934L51.9106 12.696C52.064 11.96 52.432 11.3467 53.0146 10.856C53.5973 10.3654 54.2566 10.12 54.9926 10.12H55.9586C56.6333 10.12 57.17 10.3807 57.5686 10.902C57.998 11.4234 58.1206 12.006 57.9366 12.65L53.3366 31.51C53.1526 32.246 52.754 32.8594 52.1406 33.35C51.558 33.81 50.8833 34.04 50.1166 34.04H47.8166C47.0806 34.04 46.4213 33.7947 45.8386 33.304C45.256 32.8134 44.888 32.2 44.7346 31.464L41.7446 15.686C41.7446 15.6554 41.7293 15.64 41.6986 15.64C41.668 15.64 41.6526 15.6554 41.6526 15.686L38.6626 31.464C38.54 32.2 38.1873 32.8134 37.6046 33.304C37.022 33.7947 36.3473 34.04 35.5806 34.04H33.2806C32.5446 34.04 31.87 33.81 31.2566 33.35C30.6433 32.8594 30.2446 32.246 30.0606 31.51ZM73.5924 22.54C69.2071 22.54 67.0144 23.8894 67.0144 26.588C67.0144 27.5694 67.2904 28.3667 67.8424 28.98C68.4251 29.5934 69.1611 29.9 70.0504 29.9C71.7984 29.9 73.2091 29.3634 74.2824 28.29C75.3558 27.186 75.8924 25.6834 75.8924 23.782V22.954C75.8924 22.678 75.7544 22.54 75.4784 22.54H73.5924ZM68.3944 34.5C66.3091 34.5 64.5764 33.8254 63.1964 32.476C61.8471 31.096 61.1724 29.3174 61.1724 27.14C61.1724 24.472 62.1844 22.402 64.2084 20.93C66.2631 19.458 69.3911 18.722 73.5924 18.722H75.4784C75.7544 18.722 75.8924 18.584 75.8924 18.308V17.94C75.8924 16.5294 75.5551 15.548 74.8804 14.996C74.2058 14.4134 73.0098 14.122 71.2924 14.122C69.5138 14.122 67.3364 14.444 64.7604 15.088C64.2084 15.2414 63.7024 15.1494 63.2424 14.812C62.7824 14.444 62.5524 13.9687 62.5524 13.386C62.5524 12.6807 62.7671 12.052 63.1964 11.5C63.6258 10.9174 64.1778 10.5647 64.8524 10.442C67.1831 9.9207 69.3758 9.66004 71.4304 9.66004C75.3558 9.66004 78.1004 10.3654 79.6644 11.776C81.2284 13.1867 82.0104 15.6554 82.0104 19.182V31.418C82.0104 32.1234 81.7498 32.7367 81.2284 33.258C80.7378 33.7794 80.1398 34.04 79.4344 34.04H78.9284C78.1924 34.04 77.5638 33.7947 77.0424 33.304C76.5211 32.7827 76.2451 32.154 76.2144 31.418V30.774C76.2144 30.7434 76.1991 30.728 76.1684 30.728C76.1071 30.728 76.0764 30.7434 76.0764 30.774C74.2058 33.258 71.6451 34.5 68.3944 34.5ZM94.1796 18.952V25.208C94.1796 26.4347 94.7009 27.5234 95.7436 28.474C96.8169 29.4247 98.0589 29.9 99.4696 29.9C101.095 29.9 102.383 29.2407 103.334 27.922C104.284 26.6034 104.76 24.656 104.76 22.08C104.76 16.8667 102.996 14.26 99.4696 14.26C98.0589 14.26 96.8169 14.7354 95.7436 15.686C94.7009 16.6367 94.1796 17.7254 94.1796 18.952ZM90.7296 44.16C90.0243 44.16 89.4109 43.8994 88.8896 43.378C88.3683 42.8567 88.1076 42.2434 88.1076 41.538V12.742C88.1076 12.0367 88.3683 11.4234 88.8896 10.902C89.4109 10.3807 90.0243 10.12 90.7296 10.12H91.2816C92.0176 10.12 92.6463 10.3807 93.1676 10.902C93.6889 11.3927 93.9649 12.006 93.9956 12.742V13.064C93.9956 13.0947 94.0109 13.11 94.0416 13.11C94.0723 13.11 94.1029 13.0947 94.1336 13.064C95.2376 11.8374 96.3416 10.9634 97.4456 10.442C98.5496 9.9207 99.8376 9.66004 101.31 9.66004C104.192 9.66004 106.492 10.7487 108.21 12.926C109.927 15.0727 110.786 18.124 110.786 22.08C110.786 25.9134 109.881 28.9494 108.072 31.188C106.293 33.396 104.039 34.5 101.31 34.5C98.6416 34.5 96.3263 33.534 94.3636 31.602C94.3329 31.5714 94.3023 31.556 94.2716 31.556C94.2409 31.556 94.2256 31.5714 94.2256 31.602V41.538C94.2256 42.2434 93.9649 42.8567 93.4436 43.378C92.9529 43.8994 92.3549 44.16 91.6496 44.16H90.7296ZM118.771 34.04C118.065 34.04 117.452 33.7794 116.931 33.258C116.44 32.7367 116.195 32.1234 116.195 31.418V3.08204C116.195 2.3767 116.44 1.76337 116.931 1.24204C117.452 0.720704 118.065 0.460038 118.771 0.460038H119.783C121.531 0.460038 122.819 1.22671 123.647 2.76004L135.009 23.276C135.009 23.3067 135.024 23.322 135.055 23.322C135.085 23.322 135.101 23.3067 135.101 23.276V3.08204C135.101 2.3767 135.361 1.76337 135.883 1.24204C136.404 0.720704 137.017 0.460038 137.723 0.460038H138.735C139.44 0.460038 140.038 0.720704 140.529 1.24204C141.05 1.76337 141.311 2.3767 141.311 3.08204V31.418C141.311 32.1234 141.05 32.7367 140.529 33.258C140.038 33.7794 139.44 34.04 138.735 34.04H137.723C135.975 34.04 134.687 33.2734 133.859 31.74L122.497 11.224C122.497 11.1934 122.481 11.178 122.451 11.178C122.42 11.178 122.405 11.1934 122.405 11.224V31.418C122.405 32.1234 122.144 32.7367 121.623 33.258C121.101 33.7794 120.488 34.04 119.783 34.04H118.771ZM162.199 16.054C161.31 14.766 159.961 14.122 158.151 14.122C156.342 14.122 154.977 14.766 154.057 16.054C153.168 17.3114 152.723 19.32 152.723 22.08C152.723 24.84 153.168 26.864 154.057 28.152C154.977 29.4094 156.342 30.038 158.151 30.038C159.961 30.038 161.31 29.4094 162.199 28.152C163.119 26.864 163.579 24.84 163.579 22.08C163.579 19.32 163.119 17.3114 162.199 16.054ZM166.707 31.28C164.683 33.4267 161.831 34.5 158.151 34.5C154.471 34.5 151.604 33.4267 149.549 31.28C147.525 29.1027 146.513 26.036 146.513 22.08C146.513 18.124 147.525 15.0727 149.549 12.926C151.604 10.7487 154.471 9.66004 158.151 9.66004C161.831 9.66004 164.683 10.7487 166.707 12.926C168.762 15.0727 169.789 18.124 169.789 22.08C169.789 26.036 168.762 29.1027 166.707 31.28ZM177.584 31.51L172.984 12.65C172.831 12.006 172.953 11.4234 173.352 10.902C173.781 10.3807 174.318 10.12 174.962 10.12H176.112C176.879 10.12 177.553 10.3654 178.136 10.856C178.719 11.3467 179.071 11.96 179.194 12.696L182.046 28.934C182.046 28.9647 182.061 28.98 182.092 28.98C182.153 28.98 182.184 28.9647 182.184 28.934L185.082 12.696C185.235 11.96 185.603 11.3467 186.186 10.856C186.769 10.3654 187.428 10.12 188.164 10.12H190.464C191.231 10.12 191.905 10.3654 192.488 10.856C193.071 11.3467 193.423 11.96 193.546 12.696L196.444 28.934C196.444 28.9647 196.475 28.98 196.536 28.98C196.567 28.98 196.582 28.9647 196.582 28.934L199.434 12.696C199.587 11.96 199.955 11.3467 200.538 10.856C201.121 10.3654 201.78 10.12 202.516 10.12H203.482C204.157 10.12 204.693 10.3807 205.092 10.902C205.521 11.4234 205.644 12.006 205.46 12.65L200.86 31.51C200.676 32.246 200.277 32.8594 199.664 33.35C199.081 33.81 198.407 34.04 197.64 34.04H195.34C194.604 34.04 193.945 33.7947 193.362 33.304C192.779 32.8134 192.411 32.2 192.258 31.464L189.268 15.686C189.268 15.6554 189.253 15.64 189.222 15.64C189.191 15.64 189.176 15.6554 189.176 15.686L186.186 31.464C186.063 32.2 185.711 32.8134 185.128 33.304C184.545 33.7947 183.871 34.04 183.104 34.04H180.804C180.068 34.04 179.393 33.81 178.78 33.35C178.167 32.8594 177.768 32.246 177.584 31.51Z" fill="white"/>
</svg>
