<svg width="150" height="150" viewBox="0 0 150 150" fill="none" xmlns="http://www.w3.org/2000/svg">
<path d="M71.6211 3.09777C73.5328 1.34513 76.4672 1.34513 78.3789 3.09776L81.2285 5.71027C82.7786 7.13138 85.0522 7.43071 86.9172 6.45921L90.3459 4.67325C92.6461 3.47512 95.4805 4.2346 96.8734 6.42229L98.9498 9.68331C100.079 11.4572 102.198 12.3348 104.251 11.8791L108.025 11.0414C110.557 10.4794 113.098 11.9466 113.877 14.4203L115.039 18.1076C115.671 20.1133 117.49 21.5094 119.591 21.6006L123.453 21.7682C126.044 21.8807 128.119 23.9556 128.232 26.5467L128.399 30.409C128.491 32.5099 129.887 34.3293 131.892 34.9611L135.58 36.1227C138.053 36.9019 139.521 39.4432 138.959 41.9751L138.121 45.7492C137.665 47.8021 138.543 49.9208 140.317 51.0502L143.578 53.1266C145.765 54.5195 146.525 57.3539 145.327 59.6541L143.541 63.0828C142.569 64.9478 142.869 67.2214 144.29 68.7715L146.902 71.6211C148.655 73.5328 148.655 76.4672 146.902 78.3789L144.29 81.2285C142.869 82.7786 142.569 85.0522 143.541 86.9172L145.327 90.3459C146.525 92.6461 145.765 95.4805 143.578 96.8734L140.317 98.9498C138.543 100.079 137.665 102.198 138.121 104.251L138.959 108.025C139.521 110.557 138.053 113.098 135.58 113.877L131.892 115.039C129.887 115.671 128.491 117.49 128.399 119.591L128.232 123.453C128.119 126.044 126.044 128.119 123.453 128.232L119.591 128.399C117.49 128.491 115.671 129.887 115.039 131.892L113.877 135.58C113.098 138.053 110.557 139.521 108.025 138.959L104.251 138.121C102.198 137.665 100.079 138.543 98.9498 140.317L96.8734 143.578C95.4805 145.765 92.6461 146.525 90.3459 145.327L86.9172 143.541C85.0522 142.569 82.7786 142.869 81.2285 144.29L78.3789 146.902C76.4672 148.655 73.5328 148.655 71.6211 146.902L68.7715 144.29C67.2214 142.869 64.9478 142.569 63.0828 143.541L59.6541 145.327C57.3539 146.525 54.5195 145.765 53.1266 143.578L51.0502 140.317C49.9208 138.543 47.8021 137.665 45.7492 138.121L41.9751 138.959C39.4432 139.521 36.9019 138.053 36.1227 135.58L34.9611 131.892C34.3293 129.887 32.5099 128.491 30.409 128.399L26.5467 128.232C23.9556 128.119 21.8807 126.044 21.7682 123.453L21.6006 119.591C21.5094 117.49 20.1133 115.671 18.1076 115.039L14.4203 113.877C11.9466 113.098 10.4794 110.557 11.0414 108.025L11.8791 104.251C12.3348 102.198 11.4572 100.079 9.68331 98.9498L6.42229 96.8734C4.2346 95.4805 3.47512 92.6461 4.67325 90.3459L6.45921 86.9172C7.43071 85.0522 7.13138 82.7786 5.71027 81.2285L3.09777 78.3789C1.34513 76.4672 1.34513 73.5328 3.09776 71.6211L5.71027 68.7715C7.13138 67.2214 7.43071 64.9478 6.45921 63.0828L4.67325 59.6541C3.47512 57.3539 4.2346 54.5195 6.42229 53.1266L9.68331 51.0502C11.4572 49.9208 12.3348 47.8021 11.8791 45.7492L11.0414 41.9751C10.4794 39.4432 11.9466 36.9019 14.4203 36.1227L18.1076 34.9611C20.1133 34.3293 21.5094 32.5099 21.6006 30.409L21.7682 26.5467C21.8807 23.9556 23.9556 21.8807 26.5467 21.7682L30.409 21.6006C32.5099 21.5094 34.3293 20.1133 34.9611 18.1076L36.1227 14.4203C36.9019 11.9466 39.4432 10.4794 41.9751 11.0414L45.7492 11.8791C47.8021 12.3348 49.9208 11.4572 51.0502 9.68331L53.1266 6.42229C54.5195 4.2346 57.3539 3.47512 59.6541 4.67325L63.0828 6.45921C64.9478 7.43071 67.2214 7.13138 68.7715 5.71027L71.6211 3.09777Z" fill="#5800B3"/>
<path d="M62.2393 60.9858C63.6607 60.9858 65.0282 61.2242 66.3416 61.701C67.6641 62.1778 68.8426 62.938 69.8771 63.9815C70.9207 65.0251 71.7438 66.4105 72.3466 68.1378C72.9583 69.8561 73.2687 71.9657 73.2777 74.4666C73.2777 76.8146 73.0123 78.9107 72.4815 80.755C71.9598 82.5902 71.2086 84.151 70.228 85.4375C69.2474 86.724 68.0644 87.7045 66.679 88.3793C65.2936 89.045 63.7462 89.3778 62.0369 89.3778C60.1927 89.3778 58.5644 89.0225 57.152 88.3118C55.7396 87.5921 54.6016 86.616 53.7379 85.3835C52.8833 84.142 52.366 82.7476 52.1861 81.2003H57.9482C58.1731 82.2079 58.6454 82.9905 59.3651 83.5483C60.0848 84.0971 60.9754 84.3714 62.0369 84.3714C63.8362 84.3714 65.2036 83.5888 66.1392 82.0234C67.0748 80.4491 67.5471 78.2945 67.5561 75.5597H67.3672C66.9534 76.3693 66.3956 77.0665 65.6939 77.6513C64.9922 78.227 64.187 78.6723 63.2784 78.9872C62.3788 79.3021 61.4207 79.4595 60.4041 79.4595C58.7758 79.4595 57.3229 79.0772 56.0455 78.3125C54.768 77.5478 53.7604 76.4953 53.0227 75.1548C52.285 73.8144 51.9162 72.285 51.9162 70.5668C51.9072 68.7135 52.3345 67.0627 53.1982 65.6143C54.0618 64.166 55.2673 63.0324 56.8146 62.2138C58.371 61.3861 60.1792 60.9768 62.2393 60.9858ZM62.2798 65.5739C61.3712 65.5739 60.5616 65.7898 59.8509 66.2216C59.1491 66.6534 58.5914 67.2337 58.1776 67.9624C57.7727 68.691 57.5748 69.5052 57.5838 70.4048C57.5838 71.3134 57.7817 72.1321 58.1776 72.8608C58.5824 73.5805 59.1312 74.1562 59.8239 74.5881C60.5256 75.0109 61.3262 75.2223 62.2259 75.2223C62.9006 75.2223 63.5258 75.0964 64.1016 74.8445C64.6773 74.5926 65.1766 74.2462 65.5994 73.8054C66.0313 73.3556 66.3686 72.8383 66.6115 72.2536C66.8544 71.6688 66.9759 71.0481 66.9759 70.3913C66.9669 69.5187 66.7599 68.718 66.3551 67.9893C65.9503 67.2607 65.3925 66.6759 64.6818 66.2351C63.9711 65.7943 63.1705 65.5739 62.2798 65.5739ZM87.3253 60.9858C88.7467 60.9858 90.1141 61.2242 91.4276 61.701C92.75 62.1778 93.9285 62.938 94.9631 63.9815C96.0066 65.0251 96.8298 66.4105 97.4325 68.1378C98.0443 69.8561 98.3546 71.9657 98.3636 74.4666C98.3636 76.8146 98.0982 78.9107 97.5675 80.755C97.0457 82.5902 96.2945 84.151 95.3139 85.4375C94.3333 86.724 93.1503 87.7045 91.7649 88.3793C90.3795 89.045 88.8322 89.3778 87.1229 89.3778C85.2786 89.3778 83.6503 89.0225 82.2379 88.3118C80.8255 87.5921 79.6875 86.616 78.8239 85.3835C77.9692 84.142 77.4519 82.7476 77.272 81.2003H83.0341C83.259 82.2079 83.7313 82.9905 84.451 83.5483C85.1707 84.0971 86.0613 84.3714 87.1229 84.3714C88.9221 84.3714 90.2895 83.5888 91.2251 82.0234C92.1607 80.4491 92.633 78.2945 92.642 75.5597H92.4531C92.0393 76.3693 91.4815 77.0665 90.7798 77.6513C90.0781 78.227 89.273 78.6723 88.3643 78.9872C87.4647 79.3021 86.5066 79.4595 85.4901 79.4595C83.8617 79.4595 82.4089 79.0772 81.1314 78.3125C79.8539 77.5478 78.8464 76.4953 78.1087 75.1548C77.371 73.8144 77.0021 72.285 77.0021 70.5668C76.9931 68.7135 77.4205 67.0627 78.2841 65.6143C79.1477 64.166 80.3532 63.0324 81.9006 62.2138C83.4569 61.3861 85.2652 60.9768 87.3253 60.9858ZM87.3658 65.5739C86.4571 65.5739 85.6475 65.7898 84.9368 66.2216C84.2351 66.6534 83.6773 67.2337 83.2635 67.9624C82.8587 68.691 82.6607 69.5052 82.6697 70.4048C82.6697 71.3134 82.8677 72.1321 83.2635 72.8608C83.6683 73.5805 84.2171 74.1562 84.9098 74.5881C85.6115 75.0109 86.4122 75.2223 87.3118 75.2223C87.9865 75.2223 88.6117 75.0964 89.1875 74.8445C89.7633 74.5926 90.2625 74.2462 90.6854 73.8054C91.1172 73.3556 91.4545 72.8383 91.6974 72.2536C91.9403 71.6688 92.0618 71.0481 92.0618 70.3913C92.0528 69.5187 91.8459 68.718 91.4411 67.9893C91.0362 67.2607 90.4785 66.6759 89.7678 66.2351C89.0571 65.7943 88.2564 65.5739 87.3658 65.5739Z" fill="white"/>
</svg>
