<svg width="150" height="150" viewBox="0 0 150 150" fill="none" xmlns="http://www.w3.org/2000/svg">
<path d="M71.6211 3.09777C73.5328 1.34513 76.4672 1.34513 78.3789 3.09776L81.2285 5.71027C82.7786 7.13138 85.0522 7.43071 86.9172 6.45921L90.3459 4.67325C92.6461 3.47512 95.4805 4.2346 96.8734 6.42229L98.9498 9.68331C100.079 11.4572 102.198 12.3348 104.251 11.8791L108.025 11.0414C110.557 10.4794 113.098 11.9466 113.877 14.4203L115.039 18.1076C115.671 20.1133 117.49 21.5094 119.591 21.6006L123.453 21.7682C126.044 21.8807 128.119 23.9556 128.232 26.5467L128.399 30.409C128.491 32.5099 129.887 34.3293 131.892 34.9611L135.58 36.1227C138.053 36.9019 139.521 39.4432 138.959 41.9751L138.121 45.7492C137.665 47.8021 138.543 49.9208 140.317 51.0502L143.578 53.1266C145.765 54.5195 146.525 57.3539 145.327 59.6541L143.541 63.0828C142.569 64.9478 142.869 67.2214 144.29 68.7715L146.902 71.6211C148.655 73.5328 148.655 76.4672 146.902 78.3789L144.29 81.2285C142.869 82.7786 142.569 85.0522 143.541 86.9172L145.327 90.3459C146.525 92.6461 145.765 95.4805 143.578 96.8734L140.317 98.9498C138.543 100.079 137.665 102.198 138.121 104.251L138.959 108.025C139.521 110.557 138.053 113.098 135.58 113.877L131.892 115.039C129.887 115.671 128.491 117.49 128.399 119.591L128.232 123.453C128.119 126.044 126.044 128.119 123.453 128.232L119.591 128.399C117.49 128.491 115.671 129.887 115.039 131.892L113.877 135.58C113.098 138.053 110.557 139.521 108.025 138.959L104.251 138.121C102.198 137.665 100.079 138.543 98.9498 140.317L96.8734 143.578C95.4805 145.765 92.6461 146.525 90.3459 145.327L86.9173 143.541C85.0522 142.569 82.7786 142.869 81.2285 144.29L78.3789 146.902C76.4672 148.655 73.5328 148.655 71.6211 146.902L68.7715 144.29C67.2214 142.869 64.9478 142.569 63.0828 143.541L59.6541 145.327C57.3539 146.525 54.5195 145.765 53.1266 143.578L51.0502 140.317C49.9208 138.543 47.8021 137.665 45.7492 138.121L41.9751 138.959C39.4432 139.521 36.9019 138.053 36.1227 135.58L34.9611 131.892C34.3293 129.887 32.5099 128.491 30.409 128.399L26.5467 128.232C23.9556 128.119 21.8807 126.044 21.7682 123.453L21.6006 119.591C21.5094 117.49 20.1133 115.671 18.1076 115.039L14.4203 113.877C11.9466 113.098 10.4794 110.557 11.0414 108.025L11.8791 104.251C12.3348 102.198 11.4572 100.079 9.68331 98.9498L6.42229 96.8734C4.2346 95.4805 3.47512 92.6461 4.67325 90.3459L6.45921 86.9172C7.43071 85.0522 7.13138 82.7786 5.71027 81.2285L3.09777 78.3789C1.34513 76.4672 1.34513 73.5328 3.09776 71.6211L5.71027 68.7715C7.13138 67.2214 7.43071 64.9478 6.45921 63.0828L4.67325 59.6541C3.47512 57.3539 4.2346 54.5195 6.42229 53.1266L9.68331 51.0502C11.4572 49.9208 12.3348 47.8021 11.8791 45.7492L11.0414 41.9751C10.4794 39.4432 11.9466 36.9019 14.4203 36.1227L18.1076 34.9611C20.1133 34.3293 21.5094 32.5099 21.6006 30.409L21.7682 26.5467C21.8807 23.9556 23.9556 21.8807 26.5467 21.7682L30.409 21.6006C32.5099 21.5094 34.3293 20.1133 34.9611 18.1076L36.1227 14.4203C36.9019 11.9466 39.4432 10.4794 41.9751 11.0414L45.7492 11.8791C47.8021 12.3348 49.9208 11.4572 51.0502 9.68331L53.1266 6.42229C54.5195 4.2346 57.3539 3.47512 59.6541 4.67325L63.0828 6.45921C64.9478 7.43071 67.2214 7.13138 68.7715 5.71027L71.6211 3.09777Z" fill="#5800B3"/>
<path d="M65.846 100C64.4176 100 62.9891 99.4563 61.8935 98.3551L40.633 76.9847C38.4557 74.7961 38.4557 71.2414 40.633 69.0528C42.8104 66.8642 46.3469 66.8642 48.5242 69.0528L65.846 86.4641L100.476 51.6415C102.653 49.4528 106.19 49.4528 108.367 51.6415C110.544 53.8301 110.544 57.3848 108.367 59.5734L69.7847 98.3551C68.703 99.4424 67.2745 100 65.846 100Z" fill="white"/>
</svg>
